<svg width="90" height="35" viewBox="0 0 90 35" fill="none" xmlns="http://www.w3.org/2000/svg">
<g clip-path="url(#clip0_236_6519)">
<path fill-rule="evenodd" clip-rule="evenodd" d="M0 0H16.0751V4.16029H0V0ZM0 8.52356H16.0751V12.6839H0V8.52356Z" fill="#B41E8E"/>
<path fill-rule="evenodd" clip-rule="evenodd" d="M43.8225 13.1909C38.7031 13.1909 34.9147 16.9453 34.9147 21.613V21.7144C34.9147 26.3821 38.7031 30.035 43.7201 30.035C48.8396 30.035 52.628 26.2806 52.628 21.613V21.5115C52.628 16.8439 48.942 13.1909 43.8225 13.1909ZM48.1229 21.613C48.1229 24.0483 46.587 25.9762 43.9249 25.9762C41.3652 25.9762 39.6246 23.8453 39.6246 21.5115V21.41C39.6246 18.9747 41.1604 17.0468 43.8225 17.0468C46.3822 17.1483 48.1229 19.1777 48.1229 21.613ZM30.6143 13.4953L26.8259 24.3527L23.2423 13.4953H18.3276L24.6758 29.6292H28.9761L35.4266 13.4953H30.6143ZM53.7543 21.613C53.7543 16.9453 57.5427 13.1909 62.6621 13.1909C67.7816 13.1909 71.4676 16.8439 71.4676 21.5115V21.613C71.4676 26.2806 67.6792 30.035 62.5597 30.035C57.5427 30.035 53.7543 26.3821 53.7543 21.7144V21.613ZM62.7645 25.9762C65.4266 25.9762 66.9625 24.0483 66.9625 21.613C66.9625 19.1777 65.2218 17.1483 62.6621 17.0468C60 17.0468 58.4642 18.9747 58.4642 21.41V21.5115C58.4642 23.8453 60.2048 25.9762 62.7645 25.9762ZM85.2901 13.4953V15.6262C84.1638 14.3071 82.628 13.1909 80.1706 13.1909C76.2798 13.1909 72.6962 16.1336 72.6962 21.5115V21.613C72.6962 26.9909 76.2798 29.9336 80.1706 29.9336C82.628 29.9336 84.1638 28.8174 85.2901 27.2953V34.4997H89.8976V13.4953H85.2901ZM85.3925 21.613C85.3925 24.3527 83.5495 26.0777 81.3993 26.0777C79.2491 26.0777 77.4061 24.2512 77.4061 21.613V21.5115C77.4061 18.7718 79.2491 17.0468 81.3993 17.0468C83.5495 17.0468 85.3925 18.8733 85.3925 21.613ZM16.0751 29.6293H0V17.0469H16.0751V21.1057H4.7099V25.469H16.0751V29.6293Z" fill="black"/>
</g>
<defs>
<clipPath id="clip0_236_6519">
<rect width="90" height="35" fill="white"/>
</clipPath>
</defs>
</svg>
