<svg version="1.1" id="Layer_1" xmlns="http://www.w3.org/2000/svg" xmlns:xlink="http://www.w3.org/1999/xlink" x="0px" y="0px" viewBox="25 -21.5 199 139.8" style="enable-background:new 25 -21.5 199 139.8;" xml:space="preserve">
 <style type="text/css">
  .st0{fill:#003662;}
	.st1{fill:none;}
 </style>
 <g>
  <g>
   <path class="st0" d="M192.5,89.5c10.1,3.2,20.3,7.5,31.5,13.9C196.8,58.5,148.8,10,101.3-21.5c12.3,12.3,32,38.9,37.3,67.2    C157.8,59.6,176,74.5,192.5,89.5z">
   </path>
   <path class="st0" d="M192.5,89.5c-23.5-7.5-43.2-8-57.6-6.4c5.3-12.3,5.9-25.1,3.7-37.3C102.9,20.1,62.9-2.3,25-18.8    C52.7-0.1,83.7,54.8,96.5,113.5c27.7-8,69.9-13.9,124.8,4.8C212.3,108.7,202.7,99.1,192.5,89.5z">
   </path>
   <path class="st1" d="M138.1,45.7c2.1,12.3,1.6,25.1-3.2,37.3c14.9-1.6,34.7-1.1,57.6,6.4C176,74.5,157.8,59.6,138.1,45.7z">
   </path>
  </g>
 </g>
<script xmlns=""/></svg>